<?xml version="1.0" encoding="UTF-8" standalone="no"?>
<!-- Created with Inkscape (http://www.inkscape.org/) -->

<svg
   width="512"
   height="512"
   viewBox="0 0 512 512"
   version="1.1"
   id="svg1"
   inkscape:version="1.4.2 (ebf0e940d0, 2025-05-08)"
   sodipodi:docname="icon_cv.svg"
   xmlns:inkscape="http://www.inkscape.org/namespaces/inkscape"
   xmlns:sodipodi="http://sodipodi.sourceforge.net/DTD/sodipodi-0.dtd"
   xmlns="http://www.w3.org/2000/svg"
   xmlns:svg="http://www.w3.org/2000/svg"
   xmlns:rdf="http://www.w3.org/1999/02/22-rdf-syntax-ns#"
   xmlns:cc="http://creativecommons.org/ns#"
   xmlns:dc="http://purl.org/dc/elements/1.1/">
  <title
     id="title4">file-cv</title>
  <sodipodi:namedview
     id="namedview1"
     pagecolor="#ffffff"
     bordercolor="#000000"
     borderopacity="0.25"
     inkscape:showpageshadow="2"
     inkscape:pageopacity="0.0"
     inkscape:pagecheckerboard="0"
     inkscape:deskcolor="#d1d1d1"
     inkscape:document-units="px"
     showgrid="true"
     inkscape:zoom="1.7304688"
     inkscape:cx="222.77201"
     inkscape:cy="299.05192"
     inkscape:window-width="1989"
     inkscape:window-height="1371"
     inkscape:window-x="1106"
     inkscape:window-y="16"
     inkscape:window-maximized="0"
     inkscape:current-layer="layer1">
    <inkscape:grid
       id="grid1"
       units="px"
       originx="0"
       originy="0"
       spacingx="8"
       spacingy="8"
       empcolor="#0099e5"
       empopacity="0.30196078"
       color="#0099e5"
       opacity="0.14901961"
       empspacing="4"
       enabled="true"
       visible="true" />
  </sodipodi:namedview>
  <defs
     id="defs1" />
  <g
     inkscape:label="Layer 1"
     inkscape:groupmode="layer"
     id="layer1">
    <path
       d="M 131.31033,32 C 111.7484,32 96,46.336 96,64.143498 V 447.8565 C 96,465.664 111.7484,480 131.31033,480 H 380.68966 C 400.2516,480 416,465.664 416,447.8565 V 128.43049 L 398.22223,112.35874 327.11111,48.071749 309.33333,32 Z m 160.24523,16.071749 10.39062,9.393497 85.88542,77.643504 10.39063,9.39349 h -35.55557 -35.55555 c -19.69779,0 -35.55555,-14.336 -35.55555,-32.1435 V 80.215247 Z M 208.31988,309.28083 c 6.96889,0 13.01368,0.64279 18.13367,1.92853 5.26223,1.28574 9.52836,2.70067 12.79948,4.24355 3.41334,1.41432 5.83255,2.57252 7.25478,3.47254 l -7.68012,21.21384 c -3.55556,-2.18576 -7.96479,-3.98675 -13.227,-5.40106 -5.26223,-1.54289 -11.16611,-2.31307 -17.70833,-2.31307 -5.97333,0 -11.80243,1.41297 -17.49132,4.2416 -5.68888,2.70005 -10.38425,7.39459 -14.08202,14.08044 -3.55557,6.68585 -5.33204,15.87796 -5.33204,27.5782 0,10.02877 1.27897,18.58005 3.83897,25.65162 2.56001,7.07157 6.61478,12.47062 12.16146,16.19927 5.54666,3.72865 12.65692,5.59333 21.33247,5.59333 7.53777,0 13.86654,-0.77214 18.98654,-2.31502 5.12,-1.54289 9.17263,-3.14889 12.15929,-4.82035 l 7.25478,20.82931 c -3.98223,2.31434 -9.52952,4.49943 -16.64063,6.55661 -7.11112,1.92861 -15.28897,2.89182 -24.53342,2.89182 -13.79555,0 -25.52854,-2.69854 -35.19965,-8.09865 -9.52889,-5.52868 -16.78221,-13.50086 -21.75998,-23.91536 -4.97778,-10.41449 -7.46746,-23.01556 -7.46746,-37.80157 0,-14.786 2.91673,-27.38511 8.74784,-37.7996 5.8311,-10.41449 13.79546,-18.32299 23.89321,-23.7231 10.24001,-5.52868 21.75948,-8.29288 34.55948,-8.29288 z m 49.06683,3.08604 h 30.93317 c 0.99555,6.94299 2.4176,14.97887 4.26649,24.10762 1.84889,9.00018 3.91151,18.45098 6.18706,28.35118 2.41778,9.77162 4.90746,19.34981 7.46745,28.73571 2.70223,9.3859 5.33279,17.80784 7.89279,25.26513 2.56001,-7.45729 5.12012,-15.81554 7.68012,-25.07287 2.56001,-9.3859 4.97707,-19.02777 7.25262,-28.92797 2.27556,-9.9002 4.33817,-19.351 6.18705,-28.35118 1.84889,-9.12875 3.41402,-17.16463 4.69402,-24.10762 h 30.93317 c -1.8489,8.61446 -4.1955,18.2583 -7.03993,28.92994 -2.84446,10.67164 -6.1156,21.92146 -9.81338,33.75027 -3.55555,11.70023 -7.46728,23.59287 -11.73395,35.67882 -4.12444,12.08596 -8.53365,23.85119 -13.22698,35.29427 h -30.50565 c -3.12889,-7.97158 -6.40003,-16.77958 -9.81337,-26.42263 -3.27111,-9.64305 -6.54225,-19.54361 -9.81336,-29.70096 -3.12888,-10.15734 -6.18651,-20.05594 -9.17318,-29.69899 -2.84444,-9.77163 -5.33412,-18.77267 -7.46744,-27.0014 -2.13335,-8.22874 -3.76891,-15.17207 -4.9067,-20.82932 z"
       style="fill:#ffffff;stroke-width:1.0528"
       id="path4" />
  </g>
  <metadata
     id="metadata4">
    <rdf:RDF>
      <cc:Work
         rdf:about="">
        <dc:creator>
          <cc:Agent>
            <dc:title>Xeppelin</dc:title>
          </cc:Agent>
        </dc:creator>
        <dc:language>en</dc:language>
        <dc:publisher>
          <cc:Agent>
            <dc:title>Xeppelin</dc:title>
          </cc:Agent>
        </dc:publisher>
        <dc:description>file, resume, cv</dc:description>
        <dc:title>file-cv</dc:title>
        <dc:subject>
          <rdf:Bag>
            <rdf:li>file</rdf:li>
            <rdf:li>cv</rdf:li>
            <rdf:li>resume</rdf:li>
          </rdf:Bag>
        </dc:subject>
      </cc:Work>
    </rdf:RDF>
  </metadata>
</svg>
