<?xml version="1.0" encoding="UTF-8" standalone="no"?>
<!-- Created with Inkscape (http://www.inkscape.org/) -->

<svg
   width="24"
   height="24"
   viewBox="0 0 24 24"
   version="1.1"
   id="svg1"
   sodipodi:docname="icon_cv_24.svg"
   inkscape:version="1.4.2 (ebf0e940d0, 2025-05-08)"
   xmlns:inkscape="http://www.inkscape.org/namespaces/inkscape"
   xmlns:sodipodi="http://sodipodi.sourceforge.net/DTD/sodipodi-0.dtd"
   xmlns="http://www.w3.org/2000/svg"
   xmlns:svg="http://www.w3.org/2000/svg"
   xmlns:rdf="http://www.w3.org/1999/02/22-rdf-syntax-ns#"
   xmlns:cc="http://creativecommons.org/ns#"
   xmlns:dc="http://purl.org/dc/elements/1.1/">
  <sodipodi:namedview
     id="namedview1"
     pagecolor="#ffffff"
     bordercolor="#000000"
     borderopacity="0.25"
     inkscape:showpageshadow="2"
     inkscape:pageopacity="0.0"
     inkscape:pagecheckerboard="0"
     inkscape:deskcolor="#d1d1d1"
     inkscape:document-units="px"
     showgrid="true"
     inkscape:zoom="40.557296"
     inkscape:cx="12.057017"
     inkscape:cy="12.24194"
     inkscape:window-width="1989"
     inkscape:window-height="1371"
     inkscape:window-x="1106"
     inkscape:window-y="16"
     inkscape:window-maximized="0"
     inkscape:current-layer="layer1">
    <inkscape:grid
       id="grid1"
       units="px"
       originx="0"
       originy="0"
       spacingx="1"
       spacingy="1"
       empcolor="#0099e5"
       empopacity="0.30196078"
       color="#0099e5"
       opacity="0.14901961"
       empspacing="4"
       enabled="true"
       visible="true" />
  </sodipodi:namedview>
  <defs
     id="defs1" />
  <g
     inkscape:label="Layer 1"
     inkscape:groupmode="layer"
     id="layer1">
    <path
       d="M 4.8007812,1 C 3.8035813,1 3,1.892 3,3 v 18 c 0,1.108 0.8035813,2 1.8007812,2 H 19.199219 C 20.196419,23 21,22.108 21,21 V 9 L 20.416016,8.4160156 13.583984,1.5839844 13,1 Z M 13,3 19,9 H 15 C 13.892,9 13,8.108 13,7 Z m -4.9433594,8.027344 c 0.6222207,0 1.1647321,0.119375 1.6269532,0.359375 0.4622212,0.23111 0.8223012,0.564445 1.0800782,1 0.257777,0.426666 0.386719,0.932866 0.386719,1.519531 H 9.4707031 c 0,-0.453332 -0.1261117,-0.799063 -0.375,-1.039062 -0.2399994,-0.248889 -0.5857303,-0.373047 -1.0390625,-0.373047 -0.4533322,0 -0.8038461,0.119375 -1.0527344,0.359375 -0.2488882,0.239999 -0.3730468,0.58573 -0.3730468,1.039062 v 4.253906 c 0,0.453332 0.1241586,0.803847 0.3730468,1.052735 0.2488883,0.239999 0.5994022,0.361328 1.0527344,0.361328 0.4533322,0 0.7990631,-0.121329 1.0390625,-0.361328 0.2488883,-0.248888 0.375,-0.599403 0.375,-1.052735 h 1.6796879 c 0,0.586665 -0.128942,1.097649 -0.386719,1.533203 -0.257777,0.426666 -0.617857,0.760001 -1.0800782,1 -0.4622211,0.23111 -1.0047325,0.347657 -1.6269532,0.347657 -0.6311095,0 -1.1784039,-0.116547 -1.640625,-0.347657 -0.462221,-0.24 -0.822301,-0.573334 -1.0800781,-1 C 5.0870492,19.244133 4.9628906,18.733149 4.9628906,18.146484 V 13.90625 c 0,-0.586665 0.1241586,-1.092865 0.3730469,-1.519531 0.2577771,-0.435555 0.6178571,-0.76889 1.0800781,-1 0.4622211,-0.24 1.0095155,-0.359375 1.640625,-0.359375 z m 3.9140624,0.132812 h 1.732422 l 1.466797,6.345703 c 0.08,0.311111 0.155451,0.649229 0.226562,1.013672 0.07111,0.355555 0.124601,0.640183 0.160157,0.853516 0.03555,-0.213333 0.08426,-0.497961 0.146484,-0.853516 0.06222,-0.364443 0.130059,-0.705391 0.201172,-1.02539 l 1.453125,-6.333985 h 1.679687 l -2.453125,9.732422 h -2.160156 z"
       style="fill:#ffffff;stroke-width:0.265166"
       id="path8" />
  </g>
  <metadata
     id="metadata1">
    <rdf:RDF>
      <cc:Work
         rdf:about="">
        <dc:creator>
          <cc:Agent>
            <dc:title>Xeppelin</dc:title>
          </cc:Agent>
        </dc:creator>
        <dc:publisher>
          <cc:Agent>
            <dc:title>Xeppelin</dc:title>
          </cc:Agent>
        </dc:publisher>
        <dc:language>en</dc:language>
      </cc:Work>
    </rdf:RDF>
  </metadata>
</svg>
