<?xml version="1.0" encoding="UTF-8" standalone="no"?>
<!-- Created with Inkscape (http://www.inkscape.org/) -->

<svg
   width="5000px"
   height="5000px"
   viewBox="0 0 5000 5000"
   version="1.1"
   id="SVGRoot"
   inkscape:version="1.4.3 (0d15f75042, 2025-12-25)"
   sodipodi:docname="logo_gray.svg"
   inkscape:export-filename="/home/xavier/Pictures/xeppelin/logo-bg-g-256.png"
   inkscape:export-xdpi="4.9152002"
   inkscape:export-ydpi="4.9152002"
   xml:space="preserve"
   xmlns:inkscape="http://www.inkscape.org/namespaces/inkscape"
   xmlns:sodipodi="http://sodipodi.sourceforge.net/DTD/sodipodi-0.dtd"
   xmlns="http://www.w3.org/2000/svg"
   xmlns:svg="http://www.w3.org/2000/svg"
   xmlns:rdf="http://www.w3.org/1999/02/22-rdf-syntax-ns#"
   xmlns:cc="http://creativecommons.org/ns#"
   xmlns:dc="http://purl.org/dc/elements/1.1/"><defs
     id="defs1875" /><sodipodi:namedview
     id="base"
     pagecolor="#ffffff"
     bordercolor="#666666"
     borderopacity="1.0"
     inkscape:pageopacity="0.0"
     inkscape:pageshadow="2"
     inkscape:zoom="0.2048"
     inkscape:cx="1835.9375"
     inkscape:cy="2653.8086"
     inkscape:document-units="px"
     inkscape:current-layer="SVGRoot"
     showgrid="false"
     inkscape:window-width="1636"
     inkscape:window-height="1356"
     inkscape:window-x="0"
     inkscape:window-y="0"
     inkscape:window-maximized="1"
     inkscape:showpageshadow="2"
     inkscape:pagecheckerboard="0"
     inkscape:deskcolor="#d1d1d1" /><metadata
     id="metadata1878"><rdf:RDF><cc:Work
         rdf:about=""><dc:format>image/svg+xml</dc:format><dc:type
           rdf:resource="http://purl.org/dc/dcmitype/StillImage" /><dc:title /></cc:Work></rdf:RDF></metadata><circle
     style="fill:#1f1f1f;fill-opacity:1"
     id="path1"
     cx="2500"
     cy="2495.1172"
     r="2300" /><g
     inkscape:label="Layer 1"
     inkscape:groupmode="layer"
     id="layer1"><path
       id="path1302"
       style="display:inline;fill:#b0bdd4;fill-opacity:1;stroke:#000000;stroke-width:10.764px;stroke-linecap:butt;stroke-linejoin:miter;stroke-opacity:1"
       d="m 2933.6344,2550.3227 c 41.8526,31.4429 104.6309,71.3504 162.4843,91.9088 57.8546,20.5582 105.8614,41.1164 158.7922,68.9308 52.9296,27.8153 194.4884,102.7922 246.1876,130.6077 51.7002,27.8143 118.171,66.5121 146.4826,84.6515 28.3114,18.1408 64.0086,47.1639 73.8564,58.0485 9.8476,10.8836 17.2334,29.0231 17.2334,29.0231 0,0 -1.2315,9.6748 -11.0791,30.233 -9.8477,20.5593 -76.3186,134.2351 -89.8585,156.0033 -13.54,21.7671 -20.9257,31.4417 -25.8497,32.6516 -4.9237,1.2088 -27.0809,-9.6748 -57.8544,-26.6055 -30.7735,-16.9308 -109.5537,-78.6054 -156.3291,-116.0945 -46.7765,-37.489 -120.6329,-105.211 -157.5607,-142.7 -36.9287,-37.4891 -121.8632,-129.3978 -137.8653,-151.166 -16.003,-21.767 -44.3145,-81.0242 -70.1642,-116.0946 -25.8495,-35.0703 -54.161,-79.8153 -67.7011,-94.3274 -13.5409,-14.5122 -30.7744,-35.0703 -30.7744,-35.0703 z M 2565.8821,964.39789 c -47.6736,76.06201 -74.7459,122.15351 -74.7459,122.15351 -2.6693,23.6053 -3.0701,37.8304 1.5063,86.1646 4.5762,48.3352 10.3113,92.5542 13.3629,143.1363 3.0505,50.5832 4.1809,89.9287 6.8504,160.7458 2.6704,70.816 4.9651,133.7667 6.4909,200.8369 1.5259,67.069 5.3463,152.1283 6.4898,201.5869 1.1446,49.4597 4.5818,258.5375 4.5818,258.5375 -103.3561,53.5812 -159.4286,82.7889 -229.2224,121.3822 -69.7937,38.5932 -100.3044,58.0963 -100.3044,58.0963 -33.9433,-53.2057 -74.3745,-113.5414 -123.5727,-167.4961 -49.1993,-53.9557 -76.2685,-80.56 -131.5698,-119.5267 -55.3004,-38.9678 -117.0947,-79.427 -169.7269,-111.2754 -52.631,-31.8493 -174.2935,-91.8128 -220.4411,-111.6711 -46.1478,-19.8583 -190.7015,-71.932 -248.6722,-90.6669 -57.9719,-18.7338 -97.2378,-31.8526 -165.5069,-43.0925 -68.268,-11.2409 -134.2533,-12.7324 -185.74067,-13.1081 -51.48742,-0.3733 -74.38209,5.6185 -111.37719,17.2339 -36.9939,11.6154 -73.20592,35.2112 -101.81067,70.0574 -28.60365,34.8463 -39.28645,54.7218 -64.4584,95.563 -25.17194,40.8412 -33.94668,57.6846 -43.09933,81.6644 -9.15374,23.9797 -7.63661,38.5965 -8.01779,42.7179 -0.3801,4.1214 1.91023,12.7356 3.43603,15.7326 1.52582,2.998 8.3827,14.9869 12.95902,19.1083 4.57741,4.1226 16.0204,13.1304 21.35907,15.3795 5.33977,2.248 14.11015,7.1047 18.68647,6.7301 0.2172,0 0.44526,0 0.67332,-0.1062 4.64582,-0.7362 11.49618,-13.0439 11.49618,-13.0439 -1.10335,-2.1692 -3.90192,-7.8813 -3.90192,-11.8577 0,-3.9764 0.73847,-20.969 3.3079,-31.0898 2.57595,-10.1217 4.0431,-31.8109 6.61797,-43.7388 2.57595,-11.9292 3.69992,-22.051 10.69041,-35.4257 6.99045,-13.3737 13.61058,-13.3609 22.44069,-17.3372 8.83012,-3.9753 14.71396,-15.5588 59.60189,-24.2339 44.88797,-8.6761 49.66192,-10.1068 102.27661,-10.1068 52.61578,0 78.38503,2.1691 118.12221,8.3145 39.7371,6.1453 61.436,10.1196 102.2776,19.8797 40.8405,9.7589 123.6248,32.5235 165.5698,47.3441 41.9438,14.8203 103.0269,41.573 138.7166,57.1168 35.6898,15.5438 97.1345,41.9359 136.8717,65.4314 39.7371,23.4954 82.7853,53.5001 118.8432,78.0805 36.0578,24.5795 80.2019,58.1861 109.6374,86.0196 29.4345,27.8335 34.2182,30.363 72.1156,71.932 37.8975,41.57 59.9755,64.7025 79.4765,91.8128 19.4998,27.1111 51.5201,78.455 51.5201,78.455 -30.539,19.5202 -61.0843,39.7541 -118.4817,81.6857 -57.3984,41.9306 -93.8146,67.9674 -149.0053,110.9831 -55.1896,43.0155 -123.2762,99.0367 -167.7961,143.1363 -44.5207,44.1005 -85.358,83.8546 -122.1521,125.4247 -36.7931,41.5698 -81.6842,97.5975 -114.431,142.782 -32.7454,45.1846 -43.4055,66.5134 -76.8885,122.9026 -33.4818,56.3905 -74.6851,124.3514 -97.8653,164.4756 -23.1792,40.1232 -41.592,66.878 -70.2912,125.7991 -28.6993,58.9201 -30.161,63.9719 -39.7273,92.166 -9.5665,28.1951 -18.7756,65.794 -22.8231,100.8569 -4.0474,35.0629 -2.5661,44.4495 -2.5661,59.9923 0,15.5438 3.6804,52.0661 7.3596,72.3087 3.6794,20.2424 11.038,40.4731 18.0296,59.9921 6.9905,19.5201 23.9068,61.4508 38.6239,89.646 14.7173,28.1942 47.8495,71.2278 59.6226,84.6015 11.7743,13.3748 30.5237,28.5558 55.9117,45.9069 25.387,17.35 51.1529,33.6097 78.0125,45.1761 26.8595,11.5675 53.339,20.5956 115.152,20.2339 61.813,-0.3628 138.7103,-14.816 183.5981,-31.4438 44.8891,-16.6278 102.2928,-44.0954 155.6438,-77.351 53.3499,-33.2554 118.473,-78.804 193.1647,-158.328 74.6905,-79.5241 124.3708,-163.032 178.8262,-258.1 54.4543,-95.0679 84.9996,-140.6047 128.048,-225.5509 43.0483,-84.946 64.7409,-143.1469 84.6089,-228.0932 19.8691,-84.9461 40.1096,-185.0797 39.0062,-288.4609 -1.1033,-103.3824 -3.688,-170.9795 -16.5657,-220.8629 -12.8775,-49.8832 -17.647,-61.4303 -17.647,-61.4303 112.589,-55.667 228.4805,-110.6288 228.4805,-110.6288 -0.6841,361.1367 5.3484,339.3898 -1.6973,566.8364 -7.0459,227.4456 -4.0105,289.7446 -17.0955,450.9352 -13.085,161.1896 -19.1274,225.4666 -26.1744,314.467 -7.0458,89.0004 -8.059,119.6515 -8.059,119.6515 0.108,-0.5441 6.4833,6.5657 11.1986,9.0645 22.3908,11.8672 87.0642,50.7421 97.823,47.5531 10.4949,-3.1111 179.5213,-295.9208 190.3019,-331.5544 3.8389,-12.692 1.3411,-52.3853 0.5756,-65.0355 -1.5259,-25.1044 -0.7602,-128.1293 -0.3801,-143.8663 0.3801,-15.7368 -0.3801,-66.6966 -2.2914,-101.1685 -1.907,-34.4717 -2.6738,-168.2289 -4.1995,-270.1442 -1.5258,-101.9153 -4.9445,-173.1252 -7.2328,-254.4331 -2.288,-81.3069 -8.4022,-190.3246 -10.6903,-240.5333 -2.2881,-50.2087 -14.4869,-195.9612 -14.4869,-195.9612 68.6503,-33.3473 127.7602,-53.9568 196.4105,-80.5601 68.6492,-26.6024 152.1686,-66.3265 237.2183,-105.2943 85.0498,-38.9678 151.8028,-69.3095 231.1315,-110.5253 79.3287,-41.2158 110.5921,-58.0909 130.8054,-72.7033 20.2145,-14.6135 40.4289,-25.0916 82.0002,-86.5413 41.5715,-61.4485 126.6319,-209.0829 131.2093,-223.3209 4.5763,-14.2379 -0.7601,-20.2338 -0.7601,-20.2338 -34.7069,-17.985 -116.7006,-57.325 -116.7006,-57.325 -88.4825,28.4758 -176.978,67.4392 -234.1863,94.7916 -57.2085,27.3523 -163.2339,75.6907 -261.2503,121.4024 -98.0172,45.7127 -168.9547,85.4219 -221.2056,111.6509 -52.2498,26.2277 -199.4643,98.9183 -199.4643,98.9183 -4.1951,-88.0519 -8.3804,-159.9946 -11.432,-198.9623 -3.0517,-38.9669 -10.3125,-126.6335 -14.1265,-167.1002 -3.814,-40.4658 -10.2908,-139.3873 -14.1047,-180.603 -3.814,-41.2159 -12.5811,-132.2711 -15.2504,-162.6203 -2.6694,-30.3504 -13.3446,-123.6386 -16.7773,-149.1175 -3.4328,-25.4788 -14.1092,-95.5459 -17.1596,-118.7768 -3.0517,-23.2308 -8.4056,-53.5876 -13.7442,-65.5775 -5.3398,-11.98988 -17.9166,-25.09579 -31.6465,-31.46523 -13.7302,-6.36944 -20.2135,-7.12695 -20.2135,-7.12695 z M 2090.7447,2695.4777 c 0,0 9.4992,24.1142 17.4138,67.6611 7.9158,43.547 16.6177,95.6568 22.95,170.3094 6.3324,74.6527 -2.3783,150.0682 -9.5024,216.9451 -7.124,66.876 -7.1186,83.2211 -37.9886,203.754 -30.8691,120.5328 -57.7883,156.2902 -66.4945,167.9548 -8.7064,11.6644 -65.6802,69.2241 -129.0028,120.5478 -63.3224,51.3246 -156.7243,101.8598 -206.5905,125.9667 -49.8671,24.1067 -117.1609,44.332 -152.7801,50.5533 -35.619,6.2211 -67.2699,6.9999 -95.7661,4.6677 -28.4951,-2.3334 -43.5382,-6.2372 -61.7433,-20.2339 -18.2055,-13.998 -53.8334,-68.4188 -73.622,-101.8567 -19.7888,-33.4379 -35.6158,-89.4357 -42.7399,-121.3192 -7.123,-31.8825 -8.6944,-99.5447 -6.3205,-136.0927 2.3752,-36.5491 7.1263,-51.3215 22.165,-95.6472 0,0 3.1644,-18.6496 12.6625,-35.7574 9.499,-17.1079 39.5818,-49.002 79.1582,-94.1056 39.5765,-45.1025 110.0131,-106.535 163.0458,-151.6387 53.033,-45.1023 113.1974,-88.6418 173.3542,-132.9665 60.1559,-44.3258 132.9783,-89.4325 191.5519,-126.7583 58.5734,-37.3269 110.0141,-63.7703 200.2493,-111.9837 z M 587.27368,2105.9843 c 32.85308,15.4157 37.26649,20.2328 56.39062,23.1231 19.12306,2.8902 11.27791,2.8902 32.8531,2.8902 21.57518,0 27.9499,-3.3724 36.28479,-5.2993 8.336,-1.9269 30.40203,-12.5244 46.58316,-32.7574 16.18219,-20.2328 22.06604,-32.7582 25.49883,-52.9912 3.43169,-20.2328 1.96129,-43.3558 0.97738,-60.6985 -0.97738,-17.3426 0,-4.3358 0,-4.3358 l 0.48869,-0.4802 c 3.92256,-16.3791 4.41343,-17.8248 7.35536,-20.2329 2.94192,-2.409 12.25855,-5.2993 17.65263,-5.7804 5.39406,-0.4801 44.13098,-4.3359 53.93744,-4.3359 9.80746,0 16.67194,0 16.67194,0 -10.78707,55.8813 -20.10368,120.4337 -26.96925,173.906 -6.86447,53.4723 -9.31661,85.7485 -11.76765,146.9292 -2.45214,61.1798 -1.9613,115.1344 0,159.4537 1.96129,44.3194 8.82577,133.4404 17.65262,192.2119 8.82576,58.7718 18.63322,112.2443 29.91114,157.5281 11.27791,45.2828 34.81441,127.1776 48.05361,167.6432 13.2392,40.4658 37.26655,103.0911 59.33142,150.3008 22.06609,47.2106 72.08099,145.0023 72.08099,145.0023 -32.8532,54.9181 -50.9955,85.2673 -69.6288,120.4336 -18.63328,35.1665 -30.89179,51.5455 -49.03426,96.8285 -18.14348,45.2836 -33.83481,86.7129 -44.62188,130.55 -10.78805,43.8381 -13.23919,75.151 -13.23919,90.0842 0,14.9348 0,68.4071 1.47043,86.7132 1.47156,18.306 2.94298,35.1663 2.94298,35.1663 -29.42136,-36.612 -71.10021,-93.9381 -98.06947,-136.3306 -26.96925,-42.3936 -89.24374,-150.3018 -115.72214,-207.6279 -26.47837,-57.327 -49.0342,-99.2373 -72.08088,-171.0157 -23.04668,-71.7783 -38.73694,-109.3537 -51.97614,-171.498 -13.24028,-62.1432 -24.51818,-105.0177 -33.34394,-163.7896 -8.82687,-58.7717 -16.67199,-131.9946 -18.14241,-170.0523 -1.4715,-38.0566 -3.43278,-105.018 -3.43278,-155.1189 0,-50.0998 7.84512,-115.1343 11.27791,-170.0523 3.43277,-54.9169 18.63325,-133.4404 27.45902,-175.8329 8.82686,-42.3925 20.59455,-95.8648 30.89182,-128.1409 10.29727,-32.2761 12.25855,-42.3926 12.25855,-42.3926 z m 249.33906,-527.8421 c 0,0 4.48834,-1.2602 12.82435,-2.5202 8.33593,-1.2599 12.50394,-2.519 25.64862,-4.0948 13.1459,-1.5748 14.74875,-2.2041 24.68762,-2.2041 9.93897,0 79.51238,-1.2601 90.09193,-0.6295 10.58074,0.6295 9.2982,0.6295 16.99234,1.8894 7.6953,1.26 7.6953,1.5748 7.6953,1.5748 h 0.6406 c 33.0226,-42.2079 20.8401,-31.4983 78.8706,-93.2349 58.0305,-61.7356 82.3967,-89.1392 113.1755,-116.228 30.7789,-27.0877 35.2672,-32.4425 66.0462,-58.9018 30.7787,-26.4583 35.5885,-30.2372 66.6877,-54.8061 31.0993,-24.5687 36.8702,-30.5529 81.1142,-59.5313 44.2451,-28.9782 63.8024,-41.8931 98.1075,-62.3672 34.3061,-20.4728 51.6189,-32.1277 99.3901,-55.7512 47.771,-23.6235 16.6719,-10.0791 61.8782,-30.2383 45.206,-20.1593 90.4121,-41.89217 152.6116,-62.36614 62.1986,-20.47396 81.4355,-28.97829 139.7865,-43.46796 58.3519,-14.48861 57.71,-17.00866 130.1689,-29.60777 72.4576,-12.59913 75.0229,-16.06444 134.0155,-21.41925 58.9926,-5.35375 69.8938,-7.87378 118.9475,-10.07909 49.0538,-2.20423 60.2751,-5.98428 141.3903,-1.88949 81.1141,4.0948 58.9927,-2.52003 151.3283,11.65384 92.3365,14.17387 78.2297,5.04007 175.0547,29.29303 96.8249,24.25402 79.1908,16.37917 175.375,49.13752 96.1832,32.75835 75.6646,18.58342 166.0769,62.36611 90.4122,43.7827 94.9007,39.0584 163.1914,87.5654 68.2908,48.507 69.2519,46.9323 121.1912,88.8244 51.9392,41.8921 60.917,43.4679 102.9172,85.6748 41.9993,42.208 50.0148,46.9323 90.4123,89.1402 40.3974,42.2069 75.3433,82.2095 99.3901,112.4479 24.0459,30.2382 46.809,53.2323 70.8549,91.0297 24.0457,37.7984 44.5653,68.0356 64.4431,100.4793 19.8778,32.4424 30.7788,49.7668 51.6189,88.8242 20.8389,39.0585 26.9312,45.988 45.2061,86.935 18.2749,40.9479 31.0993,64.5714 44.8857,103.9446 13.7866,39.372 21.4807,61.4208 32.7022,91.6592 11.2214,30.2381 20.1982,58.5859 30.1371,93.5496 9.9399,34.9626 11.2213,36.8521 19.5574,71.5009 8.3359,34.6479 19.2371,80.9496 27.8935,134.4967 8.6562,53.5469 7.6952,50.7121 11.2215,90.715 3.5271,40.0025 6.0923,56.6964 9.6184,115.2825 3.5273,58.5871 2.2447,108.9836 2.2447,150.8767 0,41.8922 -1.9243,56.0661 -4.8097,91.9739 -2.8856,35.908 -5.1293,63.6262 -8.6564,90.4003 -3.5263,26.773 -9.9389,66.1462 -16.0303,103.313 -6.0923,37.1678 -14.1068,72.4462 -24.0458,111.8184 -9.9388,39.3732 -17.9544,71.8167 -27.5731,103.314 -9.6184,31.4982 -18.5951,57.9564 -32.702,91.975 -14.107,34.0183 -20.5196,58.2713 -41.0393,99.8487 -20.5184,41.5774 -22.1214,34.3331 -48.4119,64.2568 -26.2904,29.9234 -45.5265,52.9164 -75.3443,84.1 -29.8166,31.1825 -59.6334,61.4207 -80.1529,80.32 -20.5185,18.8992 -32.7022,29.9235 -58.3509,52.287 -25.6486,22.3636 -79.8326,66.1461 -103.2377,83.4696 -23.4039,17.3244 -43.2818,31.1836 -64.7635,45.6722 -21.4808,14.4897 -46.1683,32.7583 -83.0385,53.547 -36.8701,20.7887 -64.1217,37.1678 -90.4122,50.7123 -26.2906,13.5444 -62.5199,30.8677 -80.1531,40.0026 -17.6341,9.1348 -90.0919,38.7427 -119.5882,49.767 -29.4963,11.0244 -63.1606,24.5688 -113.4969,39.688 -50.3363,15.1191 -119.2678,31.4982 -150.3671,38.7426 -31.0992,7.2443 -82.3976,15.4338 -114.4592,20.7887 -32.0602,5.3549 -27.5719,7.2443 -72.1373,11.0243 -44.5654,3.7801 -89.4511,7.2443 -121.833,8.1897 -32.3817,0.9495 -65.7246,2.5201 -148.4426,1.5746 -82.7181,-0.9495 -203.589,-21.1034 -238.2155,-27.4034 -34.6263,-6.299 -113.4969,-22.994 -141.7107,-30.5531 -28.2137,-7.56 -65.4043,-18.5844 -96.1831,-28.6637 -30.7789,-10.0788 -57.7102,-21.1031 -75.9851,-27.0876 -18.2749,-5.9853 -18.5963,-6.3001 -18.5963,-6.3001 m 0,0 c -23.202,23.7516 -51.4733,50.0903 -88.0318,74.5141 -36.5586,24.4225 -89.2024,56.0296 -123.8116,73.7478 -34.608,17.7192 -62.8805,32.0851 -101.8759,45.4939 -38.9953,13.409 -51.6687,17.7193 -105.288,28.254 -53.6192,10.5356 -95.0516,11.9728 -95.0516,11.9728 51.1813,31.6061 82.8659,50.7614 122.3488,72.7898 39.4831,22.0285 100.4131,56.5088 134.5346,73.2699 34.1215,16.7601 100.4141,45.015 133.0728,57.4659 32.6589,12.4507 103.3388,42.1418 186.2033,62.7341 82.8659,20.5913 156.9581,39.7466 254.4466,50.7614 97.4895,11.0137 86.7655,9.5777 221.3,10.5357 134.5358,0.9603 232.0242,-6.2254 347.0611,-29.2119 115.0369,-22.9866 246.1604,-56.9879 356.81,-106.3132 110.6505,-49.3243 215.4509,-99.6076 333.9,-182.9331 118.4489,-83.3255 173.0423,-128.8196 257.371,-217.4136 84.3275,-88.5938 127.7103,-135.0447 196.9274,-233.2165 69.2171,-98.1715 66.7803,-94.8193 137.9468,-216.9342 71.1676,-122.1164 84.816,-144.6239 138.9219,-239.9211 54.1068,-95.2984 63.3681,-104.876 109.6755,-205.4417 46.3071,-100.5657 93.102,-226.033 115.0368,-314.627 21.9356,-88.5939 35.0967,-147.9747 44.8455,-225.076 9.7488,-77.1 16.5732,-124.9883 15.1103,-244.7091 -1.4618,-119.7211 -6.3367,-198.2582 -16.573,-266.2598 -10.2366,-68.0015 -25.3469,-158.5106 -53.1317,-253.8089 -27.7838,-95.2972 -65.8049,-194.427 -100.413,-268.6539 -34.6092,-74.2269 -78.4796,-158.5105 -132.0976,-239.9209 -53.6194,-81.4104 -132.5854,-184.8494 -196.9286,-251.4137 C 3930.9353,1003.563 3838.3205,917.84335 3757.8917,856.06724 3677.464,794.29113 3551.2155,720.54216 3472.737,676.9643 c -78.4796,-43.57893 -171.093,-95.7774 -292.4677,-137.91922 -121.3737,-42.1418 -175.4804,-60.33898 -300.2662,-80.45233 -124.7856,-20.11335 -209.6009,-22.98653 -324.1512,-24.4226 -114.5492,-1.43712 -185.7157,3.35222 -305.1399,22.50749 -119.4243,19.15527 -224.7123,48.36721 -322.6884,83.80457 -97.9772,35.43736 -211.0637,89.07191 -312.9406,148.9329 -101.8759,59.86101 -139.8961,90.02998 -233.9735,168.08818 -94.0765,78.05822 -120.8859,104.87601 -201.8025,198.25821 -80.9153,93.3822 -143.7957,182.9342 -196.92748,270.091 -53.13156,87.1568 -75.06621,119.7209 -117.96132,195.385 -42.89519,75.663 -27.80545,56.9047 -27.80545,56.9047"
       inkscape:connector-curvature="0" /></g></svg>
