<?xml version="1.0" encoding="UTF-8" standalone="no"?>
<!-- Created with Inkscape (http://www.inkscape.org/) -->

<svg
   xmlns:dc="http://purl.org/dc/elements/1.1/"
   xmlns:cc="http://creativecommons.org/ns#"
   xmlns:rdf="http://www.w3.org/1999/02/22-rdf-syntax-ns#"
   xmlns:svg="http://www.w3.org/2000/svg"
   xmlns="http://www.w3.org/2000/svg"
   xmlns:sodipodi="http://sodipodi.sourceforge.net/DTD/sodipodi-0.dtd"
   xmlns:inkscape="http://www.inkscape.org/namespaces/inkscape"
   width="5000px"
   height="5000px"
   viewBox="0 0 5000 5000"
   version="1.1"
   id="SVGRoot"
   inkscape:version="0.92.5 (2060ec1f9f, 2020-04-08)"
   sodipodi:docname="Logo.svg">
  <defs
     id="defs1875" />
  <sodipodi:namedview
     id="base"
     pagecolor="#ffffff"
     bordercolor="#666666"
     borderopacity="1.0"
     inkscape:pageopacity="0.0"
     inkscape:pageshadow="2"
     inkscape:zoom="0.1024"
     inkscape:cx="2500"
     inkscape:cy="2500"
     inkscape:document-units="px"
     inkscape:current-layer="layer1"
     showgrid="false"
     inkscape:window-width="1848"
     inkscape:window-height="1023"
     inkscape:window-x="72"
     inkscape:window-y="27"
     inkscape:window-maximized="1" />
  <metadata
     id="metadata1878">
    <rdf:RDF>
      <cc:Work
         rdf:about="">
        <dc:format>image/svg+xml</dc:format>
        <dc:type
           rdf:resource="http://purl.org/dc/dcmitype/StillImage" />
        <dc:title />
      </cc:Work>
    </rdf:RDF>
  </metadata>
  <g
     inkscape:label="Layer 1"
     inkscape:groupmode="layer"
     id="layer1">
    <path
       id="path1302"
       style="display:inline;fill:#b0bdd4;stroke:#000000;stroke-width:12.08622837px;stroke-linecap:butt;stroke-linejoin:miter;stroke-opacity:1;fill-opacity:1"
       d="m 2986.9002,2556.5041 c 46.9935,35.3052 117.4832,80.1148 182.4431,103.1985 64.9612,23.0835 118.865,46.167 178.2976,77.3979 59.4312,31.2321 218.3784,115.4188 276.4281,146.651 58.0509,31.2309 132.6867,74.6822 164.4759,95.0498 31.7891,20.3691 71.8712,52.9572 82.9286,65.1789 11.0573,12.2205 19.3503,32.5881 19.3503,32.5881 0,0 -1.3828,10.8632 -12.44,33.9467 -11.0574,23.0847 -85.6932,150.724 -100.8963,175.1661 -15.2032,24.4409 -23.4962,35.3039 -29.025,36.6624 -5.5285,1.3572 -30.4074,-10.8632 -64.961,-29.8736 -34.5536,-19.0105 -123.0108,-88.261 -175.5319,-130.3551 -52.5223,-42.094 -135.4509,-118.1346 -176.9147,-160.2286 -41.4649,-42.0941 -136.8324,-145.2925 -154.8001,-169.7346 -17.9687,-24.4408 -49.7579,-90.9768 -78.7828,-130.3551 -29.0248,-39.3782 -60.814,-89.6195 -76.0172,-105.9142 -15.2043,-16.2948 -34.5546,-39.3782 -34.5546,-39.3782 z M 2573.9748,775.77127 c -53.5296,85.40517 -83.9274,137.15837 -83.9274,137.15837 -2.9972,26.50484 -3.4472,42.47725 1.6913,96.74866 5.1384,54.2725 11.5779,103.9231 15.0044,160.7185 3.4252,56.7966 4.6945,100.9752 7.6919,180.4911 2.9984,79.5147 5.5749,150.198 7.2882,225.5068 1.7133,75.3075 6.003,170.8151 7.287,226.349 1.2852,55.5351 5.1446,290.2951 5.1446,290.2951 -116.0519,60.1629 -179.0121,92.9583 -257.3791,136.2922 -78.3669,43.3339 -112.6254,65.2326 -112.6254,65.2326 -38.1127,-59.7412 -83.5103,-127.4883 -138.7518,-188.0705 -55.2427,-60.5834 -85.637,-90.4557 -147.7313,-134.2089 -62.0932,-43.7544 -131.4781,-89.1834 -190.5754,-124.944 -59.0959,-35.7615 -195.7029,-103.0906 -247.5191,-125.3882 -51.8164,-22.2977 -214.1264,-80.7678 -279.218,-101.8041 -65.0929,-21.035 -109.182,-35.7652 -185.837,-48.3858 -76.65377,-12.6216 -150.74444,-14.2964 -208.55626,-14.7182 -57.81191,-0.4192 -83.51886,6.3086 -125.05827,19.3508 -41.53807,13.0422 -82.19822,39.5364 -114.31665,78.663 -32.1172,39.1267 -44.11222,61.4436 -72.37618,107.3015 -28.26396,45.858 -38.11655,64.7703 -48.39347,91.6957 -10.27814,26.9253 -8.57465,43.3375 -9.00266,47.9652 -0.42679,4.6277 2.14488,14.3 3.8581,17.6651 1.71324,3.3663 9.41239,16.8278 14.55085,21.4555 5.13968,4.629 17.98827,14.7433 23.98272,17.2687 5.99569,2.5241 15.84338,7.9773 20.98184,7.5567 0.24388,0 0.49995,0 0.75602,-0.1192 5.2165,-0.8266 12.90833,-14.6462 12.90833,-14.6462 -1.23889,-2.4356 -4.38122,-8.8494 -4.38122,-13.3142 0,-4.4648 0.82918,-23.5447 3.71423,-34.9087 2.89237,-11.365 4.53974,-35.7184 7.43089,-49.1115 2.89237,-13.3946 4.1544,-24.7597 12.00357,-39.7773 7.84913,-15.0164 15.28245,-15.0021 25.19721,-19.4668 9.91477,-4.4636 16.52136,-17.47 66.92312,-27.2107 50.40181,-9.7418 55.76218,-11.3483 114.83982,-11.3483 59.07887,0 88.0135,2.4356 132.63183,9.3359 44.61825,6.9001 68.98256,11.3626 114.84095,22.3216 45.85717,10.9577 138.81033,36.5186 185.90763,53.1596 47.096,16.6408 115.6823,46.6797 155.756,64.1328 40.0737,17.4532 109.066,47.0871 153.6844,73.4687 44.6182,26.3815 92.9543,60.0718 133.4413,87.6716 40.487,27.5987 90.0536,65.3334 123.1048,96.5859 33.0501,31.2524 38.4214,34.0926 80.974,80.7678 42.5527,46.6762 67.3426,72.6503 89.239,103.0906 21.8951,30.4414 57.8486,88.0921 57.8486,88.0921 -34.2902,21.918 -68.5876,44.6373 -133.0354,91.7196 -64.449,47.0812 -105.3384,76.3162 -167.3085,124.6158 -61.9688,48.2994 -138.4189,111.2019 -188.4074,160.7185 -49.9895,49.5177 -95.843,94.155 -137.1568,140.8314 -41.3126,46.676 -91.7179,109.5859 -128.4871,160.3207 -36.7678,50.7349 -48.7373,74.6836 -86.3332,137.9994 -37.5946,63.3172 -83.8591,139.6262 -109.88668,184.6791 -26.02639,45.0517 -46.70098,75.093 -78.92543,141.2517 -32.22455,66.1576 -33.86585,71.8299 -44.60722,103.4872 -10.74159,31.6585 -21.08197,73.8759 -25.62661,113.2458 -4.54454,39.3698 -2.88125,49.9094 -2.88125,67.3614 0,17.4532 4.13241,58.4617 8.2636,81.1908 4.13132,22.7289 12.3938,45.4447 20.24426,67.3613 7.84913,21.9179 26.84343,68.9991 43.36828,100.6577 16.52507,31.6574 53.72708,79.9771 66.94634,94.9936 13.22059,15.0177 34.27309,32.0634 62.77971,51.5459 28.5054,19.4812 57.4363,37.7382 87.5952,50.7253 30.1588,12.9884 59.8909,23.1255 129.2968,22.7194 69.4058,-0.4074 155.7488,-16.636 206.1504,-35.3063 50.4031,-18.6702 114.8581,-49.5118 174.7625,-86.8524 59.9031,-37.3404 133.0256,-88.4839 216.8921,-177.7763 83.8652,-89.2925 139.648,-183.0582 200.7925,-289.8039 61.1432,-106.7456 95.4406,-157.876 143.7768,-253.2566 48.3362,-95.3804 72.6934,-160.7304 95.0019,-256.1111 22.3097,-95.3806 45.0365,-207.8141 43.7976,-323.8942 -1.2389,-116.0815 -4.1411,-191.9819 -18.6006,-247.9927 -14.4593,-56.0107 -19.8147,-68.9762 -19.8147,-68.9762 126.419,-62.5049 256.5461,-124.2179 256.5461,-124.2179 -0.7682,405.4971 6.0054,381.0789 -1.9058,636.4641 -7.9114,255.384 -4.5032,325.3355 -19.1955,506.3261 -14.6923,180.9894 -21.4769,253.1619 -29.3895,353.0947 -7.9113,99.9328 -9.0489,134.349 -9.0489,134.349 0.1212,-0.611 7.2797,7.3722 12.5741,10.1779 25.1412,13.3249 97.7588,56.9751 109.8392,53.3943 11.784,-3.4932 201.5729,-332.2704 213.6777,-372.2811 4.3105,-14.251 1.5059,-58.82 0.6463,-73.0241 -1.7133,-28.1882 -0.8535,-143.8682 -0.4267,-161.5382 0.4267,-17.6699 -0.4268,-74.8894 -2.5729,-113.5956 -2.1413,-38.7061 -3.0022,-188.8934 -4.7153,-303.3276 -1.7133,-114.4341 -5.5519,-194.3911 -8.1213,-285.6865 -2.5691,-91.2943 -9.4343,-213.7032 -12.0035,-270.0794 -2.5691,-56.3761 -16.2664,-220.0322 -16.2664,-220.0322 77.083,-37.4435 143.4537,-60.5846 220.5367,-90.4557 77.0818,-29.8701 170.8604,-74.4738 266.3572,-118.2282 95.4969,-43.7544 170.4496,-77.8232 259.5227,-124.1017 89.0731,-46.2786 124.1767,-65.2266 146.8729,-81.6339 22.6976,-16.4086 45.395,-28.1737 92.0728,-97.1716 46.6779,-68.9966 142.1868,-234.7658 147.3265,-250.7527 5.1384,-15.9868 -0.8535,-22.7192 -0.8535,-22.7192 -38.9702,-20.1942 -131.0356,-64.3666 -131.0356,-64.3666 -99.3513,31.9737 -198.7172,75.7231 -262.9527,106.4354 -64.2358,30.7121 -183.2848,84.9882 -293.3411,136.3149 -110.0573,51.3279 -189.7084,95.9148 -248.3776,125.3656 -58.6679,29.4494 -223.9656,111.069 -223.9656,111.069 -4.7104,-98.8678 -9.4098,-179.6476 -12.8363,-223.4019 -3.4265,-43.7534 -11.5792,-142.1886 -15.8617,-187.6261 -4.2825,-45.4364 -11.5549,-156.509 -15.8372,-202.7875 -4.2825,-46.2786 -14.1266,-148.5187 -17.1237,-182.5958 -2.9973,-34.0785 -14.9838,-138.8259 -18.8382,-167.4345 -3.8545,-28.60849 -15.8423,-107.28232 -19.2674,-133.36676 -3.4265,-26.08444 -9.4381,-60.17006 -15.4325,-73.63276 -5.9957,-13.46269 -20.1174,-28.17848 -35.5338,-35.33031 -15.4167,-7.15183 -22.6964,-8.00239 -22.6964,-8.00239 z M 2040.4736,2719.4893 c 0,0 10.666,27.0763 19.5528,75.9723 8.8882,48.8961 18.659,107.4069 25.7691,191.2295 7.1102,83.8227 -2.6704,168.5019 -10.6696,243.5937 -7.9991,75.0907 -7.993,93.4436 -42.655,228.7822 -34.6609,135.3385 -64.8867,175.4882 -74.6624,188.5856 -9.7758,13.0972 -73.7481,77.7273 -144.8489,135.3554 -71.1007,57.6291 -175.9756,114.3718 -231.9672,141.4399 -55.9925,27.0679 -131.5524,49.7775 -171.5469,56.763 -39.9943,6.9853 -75.5331,7.8598 -107.5296,5.2411 -31.9953,-2.62 -48.8862,-7.0034 -69.3276,-22.7194 -20.4418,-15.7174 -60.446,-76.823 -82.6654,-114.3683 -22.2196,-37.5452 -39.9907,-100.4216 -47.9899,-136.2215 -7.9979,-35.7988 -9.7623,-111.7723 -7.0968,-152.8097 2.6669,-41.0387 8.0016,-57.6256 24.8876,-107.3961 0,0 3.5531,-20.9404 14.2179,-40.1497 10.6658,-19.2094 44.4439,-55.0212 88.8817,-105.6651 44.4379,-50.6427 123.5266,-119.6213 183.0736,-170.2653 59.5473,-50.6425 127.102,-99.5302 194.6483,-149.2996 67.5451,-49.7705 149.3127,-100.418 215.0812,-142.3287 65.7683,-41.912 123.5278,-71.6035 224.8471,-125.7393 z M 352.32278,2057.5852 c 36.88861,17.3092 41.84415,22.718 63.3174,25.9634 21.47205,3.2452 12.66324,3.2452 36.88863,3.2452 24.22538,0 31.38314,-3.7867 40.74186,-5.9502 9.35995,-2.1636 34.13648,-14.0629 52.30522,-36.7812 18.16995,-22.7181 24.77654,-36.7821 28.631,-59.5004 3.85322,-22.7181 2.20221,-48.6815 1.09744,-68.1544 -1.09744,-19.4729 0,-4.8685 0,-4.8685 L 575.85305,1911 c 4.40438,-18.3911 4.95555,-20.0143 8.25885,-22.7182 3.3033,-2.705 13.76434,-5.9503 19.82101,-6.4905 6.05664,-0.5391 49.55183,-4.8685 60.56288,-4.8685 11.01216,0 18.71984,0 18.71984,0 -12.1121,62.7455 -22.57312,135.2272 -30.28203,195.2678 -7.70767,60.0407 -10.46102,96.2815 -13.21314,164.9774 -2.75335,68.6948 -2.20221,129.277 0,179.0403 2.20221,49.7634 9.90989,149.8316 19.82099,215.8224 9.90988,65.991 20.92204,126.0318 33.58529,176.8781 12.66324,50.8452 39.09086,142.7995 53.95631,188.2358 14.86544,45.4364 41.84421,115.7543 66.61943,168.763 24.77657,53.0098 80.93509,162.8138 80.93509,162.8138 -36.88877,61.664 -57.25957,95.7412 -78.18174,135.2271 -20.92205,39.4862 -34.68634,57.8772 -55.05736,108.7225 -20.37214,50.8461 -37.99093,97.3643 -50.10303,146.5862 -12.11321,49.223 -14.86544,84.3822 -14.86544,101.1498 0,16.7693 0,76.8099 1.65106,97.3646 1.65231,20.5546 3.30448,39.486 3.30448,39.486 -33.03535,-41.1093 -79.83385,-105.4771 -110.1159,-153.0769 -30.28203,-47.601 -100.20604,-168.7642 -129.93693,-233.1319 -29.73086,-64.3689 -55.05735,-111.4272 -80.93498,-192.0226 -25.87764,-80.5952 -43.49522,-122.7862 -58.36066,-192.564 -14.86666,-69.7766 -27.52989,-117.9177 -37.43977,-183.9088 -9.91112,-65.991 -18.7199,-148.2083 -20.37094,-190.9408 -1.65225,-42.7313 -3.85445,-117.9179 -3.85445,-174.173 0,-56.2539 8.80878,-129.2769 12.66324,-190.9408 3.85444,-61.6627 20.92208,-149.8316 30.83197,-197.4314 9.91111,-47.5999 23.12429,-107.6404 34.68643,-143.8812 11.56214,-36.2408 13.76434,-47.5999 13.76434,-47.5999 z m 279.96678,-592.68 c 0,0 5.03967,-1.4149 14.39964,-2.8297 9.35987,-1.4147 14.03987,-2.8284 28.79918,-4.5978 14.76068,-1.7682 16.56042,-2.4749 27.72014,-2.4749 11.15983,0 89.27933,-1.4148 101.15842,-0.7068 11.88042,0.7068 10.44036,0.7068 19.07963,2.1215 8.6405,1.4148 8.6405,1.7683 8.6405,1.7683 h 0.71937 c 37.07891,-47.3926 23.39996,-35.3675 88.55866,-104.6875 65.1587,-69.3189 92.5179,-100.0887 127.0775,-130.5049 34.5596,-30.4151 39.5992,-36.4277 74.159,-66.1371 34.5595,-29.7083 39.9601,-33.9514 74.8794,-61.5382 34.9194,-27.5867 41.3991,-34.3059 91.0779,-66.8439 49.6799,-32.53777 71.6396,-47.03908 110.1586,-70.02806 38.5201,-22.98766 57.9595,-36.0742 111.5987,-62.59945 53.639,-26.52535 18.7198,-11.3172 69.479,-33.95272 50.759,-22.63549 101.518,-47.03798 171.3578,-70.02689 69.8388,-22.98889 91.4387,-32.53785 156.9572,-48.80737 65.5196,-16.26833 64.7989,-19.09793 146.1583,-33.24466 81.358,-14.14675 84.2384,-18.03772 150.4774,-24.05029 66.239,-6.01139 78.4792,-8.84097 133.5585,-11.31716 55.0793,-2.47499 67.679,-6.71937 158.758,-2.12159 91.0779,4.59778 66.2392,-2.82958 169.9168,13.08535 103.6788,15.91492 87.8391,5.65916 196.5577,32.89125 108.7185,27.23328 88.9182,18.39112 196.9173,55.17336 107.9979,36.78224 84.9589,20.86612 186.4771,70.02689 101.518,49.16081 106.5578,43.85618 183.2371,98.32156 76.6793,54.46538 77.7585,52.69724 136.0778,99.73518 58.3191,47.038 68.3997,48.8073 115.559,96.1987 47.1584,47.3927 56.1585,52.6973 101.5182,100.0898 45.3596,47.3914 84.5981,92.3078 111.5987,126.2605 26.9996,33.9526 52.5589,59.7711 79.5584,102.2114 26.9994,42.4414 50.0396,76.3928 72.3591,112.8217 22.3195,36.4275 34.5595,55.88 57.9595,99.735 23.3987,43.8563 30.2393,51.637 50.759,97.6137 20.5197,45.9778 34.9194,72.5031 50.3993,116.7127 15.4801,44.2083 24.1193,68.9655 36.7192,102.9182 12.5998,33.9525 22.6792,65.7824 33.839,105.0409 11.1609,39.2572 12.5997,41.3788 21.9597,80.2837 9.3599,38.9039 21.6001,90.8931 31.3198,151.0177 9.7195,60.1244 8.6405,56.9414 12.5999,101.858 3.9604,44.9163 6.8407,63.6608 10.7999,129.4433 3.9606,65.7837 2.5204,122.3707 2.5204,169.4098 0,47.038 -2.1606,62.953 -5.4005,103.2715 -3.24,40.3188 -5.7593,71.4418 -9.7197,101.5047 -3.9594,30.0617 -11.1597,74.2713 -17.9993,116.0035 -6.8407,41.7334 -15.8397,81.3452 -26.9995,125.5537 -11.1597,44.2096 -20.1599,80.6384 -30.9601,116.0046 -10.7999,35.3674 -20.8792,65.0756 -36.719,103.2728 -15.8398,38.197 -23.0401,65.4291 -46.0803,112.1137 -23.0388,46.6846 -24.8387,38.5504 -54.3587,72.1498 -29.5198,33.5991 -51.1187,59.4165 -84.5992,94.4305 -33.4792,35.0128 -66.9585,68.9654 -89.9985,90.1862 -23.039,21.2207 -36.7192,33.5992 -65.5185,58.7097 -28.7992,25.1106 -89.6389,74.2712 -115.919,93.7226 -26.2787,19.4525 -48.5983,35.0141 -72.7188,51.2824 -24.1193,16.2695 -51.8394,36.7822 -93.2385,60.1245 -41.3991,23.3423 -71.9982,41.7333 -101.5181,56.9416 -29.52,15.2081 -70.1995,34.6593 -89.9987,44.9163 -19.8002,10.2569 -101.1584,43.5017 -134.2779,55.8802 -33.1195,12.3785 -70.919,27.5867 -127.4384,44.563 -56.5194,16.9763 -133.9181,35.3674 -168.8375,43.5016 -34.9193,8.1342 -92.519,17.3297 -128.5189,23.3423 -35.9983,6.0127 -30.9587,8.1342 -80.9983,12.3785 -50.0396,4.2444 -100.4389,8.1342 -136.7984,9.1957 -36.3594,1.0661 -73.7979,2.8296 -166.6767,1.768 -92.8788,-1.0661 -228.5969,-23.6956 -267.4768,-30.7695 -38.8797,-7.0728 -127.4384,-25.8185 -159.1178,-34.3061 -31.6794,-8.4887 -73.4383,-20.8673 -107.9978,-32.1846 -34.5597,-11.3169 -64.7991,-23.6954 -85.3188,-30.415 -20.5197,-6.7205 -20.8806,-7.0739 -20.8806,-7.0739 m 0,0 c -26.052,26.6691 -57.796,56.2431 -98.8452,83.667 -41.0493,27.4225 -100.1597,62.9121 -139.0201,82.8067 -38.8591,19.8957 -70.6045,36.0263 -114.3899,51.0822 -43.7853,15.0561 -58.0155,19.8958 -118.2211,31.7246 -60.2056,11.8297 -106.7273,13.4435 -106.7273,13.4435 57.4681,35.4884 93.0447,56.9967 137.3776,81.7309 44.333,24.7344 112.7474,63.4501 151.0602,82.2701 38.3128,18.8188 112.7485,50.5444 149.4189,64.5247 36.6705,13.9801 116.0325,47.3184 209.0757,70.4401 93.0448,23.1207 176.2381,44.6289 285.7017,56.9967 109.4647,12.3666 97.4234,10.7542 248.4835,11.8299 151.0616,1.0782 260.525,-6.9901 389.6926,-32.8002 129.1675,-25.8102 276.3976,-63.988 400.6389,-119.3722 124.2423,-55.3831 241.916,-111.843 374.9148,-205.4038 132.9987,-93.5609 194.2981,-144.6432 288.9853,-244.1197 94.686,-99.4763 143.3977,-151.6331 221.1171,-261.8638 77.7195,-110.2305 74.9833,-106.4665 154.8916,-243.5815 79.9095,-137.1166 95.2345,-162.3888 155.9865,-269.3919 60.753,-107.0045 71.1519,-117.7585 123.1475,-230.6773 51.9953,-112.9187 104.5383,-253.7979 129.1674,-353.2744 24.6301,-99.4764 39.4079,-166.1513 50.3542,-252.7233 10.9463,-86.5707 18.6089,-140.3413 16.9664,-274.7681 -1.6414,-134.4271 -7.1151,-222.6114 -18.6088,-298.966 -11.494,-76.3545 -28.4604,-177.9813 -59.6582,-284.9857 -31.1966,-107.0031 -73.8881,-218.3095 -112.7473,-301.6541 -38.8604,-83.3446 -88.1196,-177.9813 -148.3239,-269.3918 C 4339.8634,1085.3751 4251.1975,969.23019 4178.9507,894.48934 4106.7051,819.74726 4002.7139,723.49817 3912.4056,654.13376 3822.0985,584.76934 3680.3422,501.96137 3592.2238,453.0306 3504.1041,404.09863 3400.1144,345.48832 3263.8306,298.16999 3127.5479,250.85168 3066.795,230.41923 2926.681,207.83525 c -140.1137,-22.58399 -235.3473,-25.8101 -363.9685,-27.42257 -128.6199,-1.61364 -208.5282,3.764 -342.6219,25.27222 -134.0939,21.50822 -252.315,54.30842 -362.3261,94.09875 -110.0123,39.79033 -236.9898,100.01311 -351.3808,167.22716 -114.3899,67.21408 -157.0803,101.08887 -262.7138,188.7354 -105.6324,87.64654 -135.735,117.75851 -226.591,222.61133 -90.85458,104.85292 -161.45897,205.40506 -221.11721,303.26786 -59.65801,97.8628 -84.28701,134.4269 -132.45117,219.3852 -48.16425,84.9571 -31.22095,63.8946 -31.22095,63.8946"
       inkscape:connector-curvature="0" />
  </g>
</svg>
